ffmpeg version 4.3.5-0+deb11u1+rpt3 Copyright (c) 2000-2022 the FFmpeg developers
  built with gcc 10 (Raspbian 10.2.1-6+rpi1)
  configuration: --prefix=/usr --extra-version=0+deb11u1+rpt3 --toolchain=hardened --incdir=/usr/include/arm-linux-gnueabihf --enable-gpl --disable-stripping --enable-avresample --disable-filter=resample --enable-gnutls --enable-ladspa --enable-libaom --enable-libass --enable-libbluray --enable-libbs2b --enable-libcaca --enable-libcdio --enable-libcodec2 --enable-libdav1d --enable-libflite --enable-libfontconfig --enable-libfreetype --enable-libfribidi --enable-libgme --enable-libgsm --enable-libjack --enable-libmp3lame --enable-libmysofa --enable-libopenjpeg --enable-libopenmpt --enable-libopus --enable-libpulse --enable-librabbitmq --enable-librsvg --enable-librubberband --enable-libshine --enable-libsnappy --enable-libsoxr --enable-libspeex --enable-libsrt --enable-libssh --enable-libtheora --enable-libtwolame --enable-libvidstab --enable-libvorbis --enable-libvpx --enable-libwavpack --enable-libwebp --enable-libx265 --enable-libxml2 --enable-libxvid --enable-libzmq --enable-libzvbi --enable-lv2 --enable-omx --enable-openal --enable-opencl --enable-opengl --enable-sdl2 --enable-mmal --enable-neon --enable-rpi --enable-v4l2-request --enable-libudev --enable-epoxy --enable-pocketsphinx --enable-libdc1394 --enable-libdrm --enable-vout-drm --enable-libiec61883 --enable-chromaprint --enable-frei0r --enable-libx264 --enable-shared --libdir=/usr/lib/arm-linux-gnueabihf --cpu=arm1176jzf-s --arch=arm
  WARNING: library configuration mismatch
  avutil      configuration: --prefix=/usr --extra-version=0+deb11u1+rpt3 --toolchain=hardened --incdir=/usr/include/arm-linux-gnueabihf --enable-gpl --disable-stripping --enable-avresample --disable-filter=resample --enable-gnutls --enable-ladspa --enable-libaom --enable-libass --enable-libbluray --enable-libbs2b --enable-libcaca --enable-libcdio --enable-libcodec2 --enable-libdav1d --enable-libflite --enable-libfontconfig --enable-libfreetype --enable-libfribidi --enable-libgme --enable-libgsm --enable-libjack --enable-libmp3lame --enable-libmysofa --enable-libopenjpeg --enable-libopenmpt --enable-libopus --enable-libpulse --enable-librabbitmq --enable-librsvg --enable-librubberband --enable-libshine --enable-libsnappy --enable-libsoxr --enable-libspeex --enable-libsrt --enable-libssh --enable-libtheora --enable-libtwolame --enable-libvidstab --enable-libvorbis --enable-libvpx --enable-libwavpack --enable-libwebp --enable-libx265 --enable-libxml2 --enable-libxvid --enable-libzmq --enable-libzvbi --enable-lv2 --enable-omx --enable-openal --enable-opencl --enable-opengl --enable-sdl2 --enable-mmal --enable-neon --enable-rpi --enable-v4l2-request --enable-libudev --enable-epoxy --enable-pocketsphinx --enable-libdc1394 --enable-libdrm --enable-vout-drm --enable-libiec61883 --enable-chromaprint --enable-frei0r --enable-libx264 --libdir=/usr/lib/arm-linux-gnueabihf/neon/vfp --cpu=cortex-a7 --arch=armv6t2 --disable-thumb --enable-shared --disable-doc --disable-programs
  avcodec     configuration: --prefix=/usr --extra-version=0+deb11u1+rpt3 --toolchain=hardened --incdir=/usr/include/arm-linux-gnueabihf --enable-gpl --disable-stripping --enable-avresample --disable-filter=resample --enable-gnutls --enable-ladspa --enable-libaom --enable-libass --enable-libbluray --enable-libbs2b --enable-libcaca --enable-libcdio --enable-libcodec2 --enable-libdav1d --enable-libflite --enable-libfontconfig --enable-libfreetype --enable-libfribidi --enable-libgme --enable-libgsm --enable-libjack --enable-libmp3lame --enable-libmysofa --enable-libopenjpeg --enable-libopenmpt --enable-libopus --enable-libpulse --enable-librabbitmq --enable-librsvg --enable-librubberband --enable-libshine --enable-libsnappy --enable-libsoxr --enable-libspeex --enable-libsrt --enable-libssh --enable-libtheora --enable-libtwolame --enable-libvidstab --enable-libvorbis --enable-libvpx --enable-libwavpack --enable-libwebp --enable-libx265 --enable-libxml2 --enable-libxvid --enable-libzmq --enable-libzvbi --enable-lv2 --enable-omx --enable-openal --enable-opencl --enable-opengl --enable-sdl2 --enable-mmal --enable-neon --enable-rpi --enable-v4l2-request --enable-libudev --enable-epoxy --enable-pocketsphinx --enable-libdc1394 --enable-libdrm --enable-vout-drm --enable-libiec61883 --enable-chromaprint --enable-frei0r --enable-libx264 --libdir=/usr/lib/arm-linux-gnueabihf/neon/vfp --cpu=cortex-a7 --arch=armv6t2 --disable-thumb --enable-shared --disable-doc --disable-programs
  avformat    configuration: --prefix=/usr --extra-version=0+deb11u1+rpt3 --toolchain=hardened --incdir=/usr/include/arm-linux-gnueabihf --enable-gpl --disable-stripping --enable-avresample --disable-filter=resample --enable-gnutls --enable-ladspa --enable-libaom --enable-libass --enable-libbluray --enable-libbs2b --enable-libcaca --enable-libcdio --enable-libcodec2 --enable-libdav1d --enable-libflite --enable-libfontconfig --enable-libfreetype --enable-libfribidi --enable-libgme --enable-libgsm --enable-libjack --enable-libmp3lame --enable-libmysofa --enable-libopenjpeg --enable-libopenmpt --enable-libopus --enable-libpulse --enable-librabbitmq --enable-librsvg --enable-librubberband --enable-libshine --enable-libsnappy --enable-libsoxr --enable-libspeex --enable-libsrt --enable-libssh --enable-libtheora --enable-libtwolame --enable-libvidstab --enable-libvorbis --enable-libvpx --enable-libwavpack --enable-libwebp --enable-libx265 --enable-libxml2 --enable-libxvid --enable-libzmq --enable-libzvbi --enable-lv2 --enable-omx --enable-openal --enable-opencl --enable-opengl --enable-sdl2 --enable-mmal --enable-neon --enable-rpi --enable-v4l2-request --enable-libudev --enable-epoxy --enable-pocketsphinx --enable-libdc1394 --enable-libdrm --enable-vout-drm --enable-libiec61883 --enable-chromaprint --enable-frei0r --enable-libx264 --libdir=/usr/lib/arm-linux-gnueabihf/neon/vfp --cpu=cortex-a7 --arch=armv6t2 --disable-thumb --enable-shared --disable-doc --disable-programs
  avdevice    configuration: --prefix=/usr --extra-version=0+deb11u1+rpt3 --toolchain=hardened --incdir=/usr/include/arm-linux-gnueabihf --enable-gpl --disable-stripping --enable-avresample --disable-filter=resample --enable-gnutls --enable-ladspa --enable-libaom --enable-libass --enable-libbluray --enable-libbs2b --enable-libcaca --enable-libcdio --enable-libcodec2 --enable-libdav1d --enable-libflite --enable-libfontconfig --enable-libfreetype --enable-libfribidi --enable-libgme --enable-libgsm --enable-libjack --enable-libmp3lame --enable-libmysofa --enable-libopenjpeg --enable-libopenmpt --enable-libopus --enable-libpulse --enable-librabbitmq --enable-librsvg --enable-librubberband --enable-libshine --enable-libsnappy --enable-libsoxr --enable-libspeex --enable-libsrt --enable-libssh --enable-libtheora --enable-libtwolame --enable-libvidstab --enable-libvorbis --enable-libvpx --enable-libwavpack --enable-libwebp --enable-libx265 --enable-libxml2 --enable-libxvid --enable-libzmq --enable-libzvbi --enable-lv2 --enable-omx --enable-openal --enable-opencl --enable-opengl --enable-sdl2 --enable-mmal --enable-neon --enable-rpi --enable-v4l2-request --enable-libudev --enable-epoxy --enable-pocketsphinx --enable-libdc1394 --enable-libdrm --enable-vout-drm --enable-libiec61883 --enable-chromaprint --enable-frei0r --enable-libx264 --libdir=/usr/lib/arm-linux-gnueabihf/neon/vfp --cpu=cortex-a7 --arch=armv6t2 --disable-thumb --enable-shared --disable-doc --disable-programs
  avfilter    configuration: --prefix=/usr --extra-version=0+deb11u1+rpt3 --toolchain=hardened --incdir=/usr/include/arm-linux-gnueabihf --enable-gpl --disable-stripping --enable-avresample --disable-filter=resample --enable-gnutls --enable-ladspa --enable-libaom --enable-libass --enable-libbluray --enable-libbs2b --enable-libcaca --enable-libcdio --enable-libcodec2 --enable-libdav1d --enable-libflite --enable-libfontconfig --enable-libfreetype --enable-libfribidi --enable-libgme --enable-libgsm --enable-libjack --enable-libmp3lame --enable-libmysofa --enable-libopenjpeg --enable-libopenmpt --enable-libopus --enable-libpulse --enable-librabbitmq --enable-librsvg --enable-librubberband --enable-libshine --enable-libsnappy --enable-libsoxr --enable-libspeex --enable-libsrt --enable-libssh --enable-libtheora --enable-libtwolame --enable-libvidstab --enable-libvorbis --enable-libvpx --enable-libwavpack --enable-libwebp --enable-libx265 --enable-libxml2 --enable-libxvid --enable-libzmq --enable-libzvbi --enable-lv2 --enable-omx --enable-openal --enable-opencl --enable-opengl --enable-sdl2 --enable-mmal --enable-neon --enable-rpi --enable-v4l2-request --enable-libudev --enable-epoxy --enable-pocketsphinx --enable-libdc1394 --enable-libdrm --enable-vout-drm --enable-libiec61883 --enable-chromaprint --enable-frei0r --enable-libx264 --libdir=/usr/lib/arm-linux-gnueabihf/neon/vfp --cpu=cortex-a7 --arch=armv6t2 --disable-thumb --enable-shared --disable-doc --disable-programs
  avresample  configuration: --prefix=/usr --extra-version=0+deb11u1+rpt3 --toolchain=hardened --incdir=/usr/include/arm-linux-gnueabihf --enable-gpl --disable-stripping --enable-avresample --disable-filter=resample --enable-gnutls --enable-ladspa --enable-libaom --enable-libass --enable-libbluray --enable-libbs2b --enable-libcaca --enable-libcdio --enable-libcodec2 --enable-libdav1d --enable-libflite --enable-libfontconfig --enable-libfreetype --enable-libfribidi --enable-libgme --enable-libgsm --enable-libjack --enable-libmp3lame --enable-libmysofa --enable-libopenjpeg --enable-libopenmpt --enable-libopus --enable-libpulse --enable-librabbitmq --enable-librsvg --enable-librubberband --enable-libshine --enable-libsnappy --enable-libsoxr --enable-libspeex --enable-libsrt --enable-libssh --enable-libtheora --enable-libtwolame --enable-libvidstab --enable-libvorbis --enable-libvpx --enable-libwavpack --enable-libwebp --enable-libx265 --enable-libxml2 --enable-libxvid --enable-libzmq --enable-libzvbi --enable-lv2 --enable-omx --enable-openal --enable-opencl --enable-opengl --enable-sdl2 --enable-mmal --enable-neon --enable-rpi --enable-v4l2-request --enable-libudev --enable-epoxy --enable-pocketsphinx --enable-libdc1394 --enable-libdrm --enable-vout-drm --enable-libiec61883 --enable-chromaprint --enable-frei0r --enable-libx264 --libdir=/usr/lib/arm-linux-gnueabihf/neon/vfp --cpu=cortex-a7 --arch=armv6t2 --disable-thumb --enable-shared --disable-doc --disable-programs
  swscale     configuration: --prefix=/usr --extra-version=0+deb11u1+rpt3 --toolchain=hardened --incdir=/usr/include/arm-linux-gnueabihf --enable-gpl --disable-stripping --enable-avresample --disable-filter=resample --enable-gnutls --enable-ladspa --enable-libaom --enable-libass --enable-libbluray --enable-libbs2b --enable-libcaca --enable-libcdio --enable-libcodec2 --enable-libdav1d --enable-libflite --enable-libfontconfig --enable-libfreetype --enable-libfribidi --enable-libgme --enable-libgsm --enable-libjack --enable-libmp3lame --enable-libmysofa --enable-libopenjpeg --enable-libopenmpt --enable-libopus --enable-libpulse --enable-librabbitmq --enable-librsvg --enable-librubberband --enable-libshine --enable-libsnappy --enable-libsoxr --enable-libspeex --enable-libsrt --enable-libssh --enable-libtheora --enable-libtwolame --enable-libvidstab --enable-libvorbis --enable-libvpx --enable-libwavpack --enable-libwebp --enable-libx265 --enable-libxml2 --enable-libxvid --enable-libzmq --enable-libzvbi --enable-lv2 --enable-omx --enable-openal --enable-opencl --enable-opengl --enable-sdl2 --enable-mmal --enable-neon --enable-rpi --enable-v4l2-request --enable-libudev --enable-epoxy --enable-pocketsphinx --enable-libdc1394 --enable-libdrm --enable-vout-drm --enable-libiec61883 --enable-chromaprint --enable-frei0r --enable-libx264 --libdir=/usr/lib/arm-linux-gnueabihf/neon/vfp --cpu=cortex-a7 --arch=armv6t2 --disable-thumb --enable-shared --disable-doc --disable-programs
  swresample  configuration: --prefix=/usr --extra-version=0+deb11u1+rpt3 --toolchain=hardened --incdir=/usr/include/arm-linux-gnueabihf --enable-gpl --disable-stripping --enable-avresample --disable-filter=resample --enable-gnutls --enable-ladspa --enable-libaom --enable-libass --enable-libbluray --enable-libbs2b --enable-libcaca --enable-libcdio --enable-libcodec2 --enable-libdav1d --enable-libflite --enable-libfontconfig --enable-libfreetype --enable-libfribidi --enable-libgme --enable-libgsm --enable-libjack --enable-libmp3lame --enable-libmysofa --enable-libopenjpeg --enable-libopenmpt --enable-libopus --enable-libpulse --enable-librabbitmq --enable-librsvg --enable-librubberband --enable-libshine --enable-libsnappy --enable-libsoxr --enable-libspeex --enable-libsrt --enable-libssh --enable-libtheora --enable-libtwolame --enable-libvidstab --enable-libvorbis --enable-libvpx --enable-libwavpack --enable-libwebp --enable-libx265 --enable-libxml2 --enable-libxvid --enable-libzmq --enable-libzvbi --enable-lv2 --enable-omx --enable-openal --enable-opencl --enable-opengl --enable-sdl2 --enable-mmal --enable-neon --enable-rpi --enable-v4l2-request --enable-libudev --enable-epoxy --enable-pocketsphinx --enable-libdc1394 --enable-libdrm --enable-vout-drm --enable-libiec61883 --enable-chromaprint --enable-frei0r --enable-libx264 --libdir=/usr/lib/arm-linux-gnueabihf/neon/vfp --cpu=cortex-a7 --arch=armv6t2 --disable-thumb --enable-shared --disable-doc --disable-programs
  postproc    configuration: --prefix=/usr --extra-version=0+deb11u1+rpt3 --toolchain=hardened --incdir=/usr/include/arm-linux-gnueabihf --enable-gpl --disable-stripping --enable-avresample --disable-filter=resample --enable-gnutls --enable-ladspa --enable-libaom --enable-libass --enable-libbluray --enable-libbs2b --enable-libcaca --enable-libcdio --enable-libcodec2 --enable-libdav1d --enable-libflite --enable-libfontconfig --enable-libfreetype --enable-libfribidi --enable-libgme --enable-libgsm --enable-libjack --enable-libmp3lame --enable-libmysofa --enable-libopenjpeg --enable-libopenmpt --enable-libopus --enable-libpulse --enable-librabbitmq --enable-librsvg --enable-librubberband --enable-libshine --enable-libsnappy --enable-libsoxr --enable-libspeex --enable-libsrt --enable-libssh --enable-libtheora --enable-libtwolame --enable-libvidstab --enable-libvorbis --enable-libvpx --enable-libwavpack --enable-libwebp --enable-libx265 --enable-libxml2 --enable-libxvid --enable-libzmq --enable-libzvbi --enable-lv2 --enable-omx --enable-openal --enable-opencl --enable-opengl --enable-sdl2 --enable-mmal --enable-neon --enable-rpi --enable-v4l2-request --enable-libudev --enable-epoxy --enable-pocketsphinx --enable-libdc1394 --enable-libdrm --enable-vout-drm --enable-libiec61883 --enable-chromaprint --enable-frei0r --enable-libx264 --libdir=/usr/lib/arm-linux-gnueabihf/neon/vfp --cpu=cortex-a7 --arch=armv6t2 --disable-thumb --enable-shared --disable-doc --disable-programs
  libavutil      56. 51.100 / 56. 51.100
  libavcodec     58. 91.100 / 58. 91.100
  libavformat    58. 45.100 / 58. 45.100
  libavdevice    58. 10.100 / 58. 10.100
  libavfilter     7. 85.100 /  7. 85.100
  libavresample   4.  0.  0 /  4.  0.  0
  libswscale      5.  7.100 /  5.  7.100
  libswresample   3.  7.100 /  3.  7.100
  libpostproc    55.  7.100 / 55.  7.100
Input #0, rawvideo, from 'pipe:':
  Duration: N/A, start: 0.000000, bitrate: 259200 kb/s
    Stream #0:0: Video: rawvideo (RGB[24] / 0x18424752), rgb24, 600x600, 259200 kb/s, 30 tbr, 30 tbn, 30 tbc
Stream mapping:
  Stream #0:0 -> #0:0 (rawvideo (native) -> h264 (libx264))
[libx264 @ 0x16c2f20] using cpu capabilities: ARMv6 NEON
[libx264 @ 0x16c2f20] profile High, level 3.1, 4:2:0, 8-bit
[libx264 @ 0x16c2f20] 264 - core 160 r3011 cde9a93 - H.264/MPEG-4 AVC codec - Copyleft 2003-2020 - http://www.videolan.org/x264.html - options: cabac=1 ref=3 deblock=1:0:0 analyse=0x3:0x113 me=hex subme=7 psy=1 psy_rd=1.00:0.00 mixed_ref=1 me_range=16 chroma_me=1 trellis=1 8x8dct=1 cqm=0 deadzone=21,11 fast_pskip=1 chroma_qp_offset=-2 threads=6 lookahead_threads=1 sliced_threads=0 nr=0 decimate=1 interlaced=0 bluray_compat=0 constrained_intra=0 bframes=3 b_pyramid=2 b_adapt=1 b_bias=0 direct=1 weightb=1 open_gop=0 weightp=2 keyint=250 keyint_min=25 scenecut=40 intra_refresh=0 rc_lookahead=40 rc=crf mbtree=1 crf=15.0 qcomp=0.60 qpmin=0 qpmax=69 qpstep=4 ip_ratio=1.40 aq=1:1.00
Output #0, mp4, to '/home/patch/plantoidz-pi/sketch_230315b/hello.mp4':
  Metadata:
    comment         : Made with Video Export for Processing - https://git.io/vAXLk
    encoder         : Lavf58.45.100
    Stream #0:0: Video: h264 (libx264) (avc1 / 0x31637661), yuv420p, 600x600, q=-1--1, 30 fps, 15360 tbn, 30 tbc
    Metadata:
      encoder         : Lavc58.91.100 libx264
    Side data:
      cpb: bitrate max/min/avg: 0/0/0 buffer size: 0 vbv_delay: N/A
frame=   19 fps=0.0 q=0.0 size=       0kB time=00:00:00.00 bitrate=N/A speed=   0x    frame=   37 fps= 35 q=0.0 size=       0kB time=00:00:00.00 bitrate=N/A speed=   0x    frame=   49 fps= 31 q=0.0 size=       0kB time=00:00:00.00 bitrate=N/A speed=   0x    frame=   64 fps= 31 q=21.0 size=       0kB time=00:00:00.36 bitrate=   1.0kbits/s speed=0.176x    frame=   80 fps= 31 q=18.0 size=       0kB time=00:00:00.90 bitrate=   0.4kbits/s speed=0.347x    frame=   97 fps= 31 q=21.0 size=       0kB time=00:00:01.46 bitrate=   0.3kbits/s speed=0.473x    frame=  112 fps= 31 q=21.0 size=       0kB time=00:00:01.96 bitrate=   0.2kbits/s speed=0.543x    frame=  127 fps= 31 q=21.0 size=       0kB time=00:00:02.46 bitrate=   0.2kbits/s speed=0.595x    frame=  142 fps= 31 q=21.0 size=       0kB time=00:00:02.96 bitrate=   0.1kbits/s speed=0.638x    frame=  158 fps= 31 q=21.0 size=       0kB time=00:00:03.50 bitrate=   0.1kbits/s speed=0.676x    frame=  173 fps= 30 q=21.0 size=       0kB time=00:00:04.00 bitrate=   0.1kbits/s speed=0.702x    frame=  189 fps= 30 q=21.0 size=       0kB time=00:00:04.53 bitrate=   0.1kbits/s speed=0.728x    frame=  205 fps= 30 q=21.0 size=       0kB time=00:00:05.06 bitrate=   0.1kbits/s speed=0.752x    frame=  221 fps= 30 q=21.0 size=       0kB time=00:00:05.60 bitrate=   0.1kbits/s speed=0.772x    frame=  237 fps= 30 q=21.0 size=       0kB time=00:00:06.13 bitrate=   0.1kbits/s speed=0.788x    frame=  253 fps= 31 q=21.0 size=       0kB time=00:00:06.66 bitrate=   0.1kbits/s speed=0.804x    frame=  269 fps= 31 q=21.0 size=       0kB time=00:00:07.20 bitrate=   0.1kbits/s speed=0.819x    frame=  285 fps= 31 q=21.0 size=       0kB time=00:00:07.73 bitrate=   0.0kbits/s speed=0.83x    frame=  299 fps= 30 q=18.0 size=       0kB time=00:00:08.20 bitrate=   0.0kbits/s speed=0.834x    frame=  314 fps= 30 q=21.0 size=       0kB time=00:00:08.70 bitrate=   0.0kbits/s speed=0.841x    frame=  331 fps= 30 q=21.0 size=       0kB time=00:00:09.26 bitrate=   0.0kbits/s speed=0.853x    frame=  348 fps= 31 q=21.0 size=       0kB time=00:00:09.83 bitrate=   0.0kbits/s speed=0.864x    frame=  366 fps= 31 q=21.0 size=       0kB time=00:00:10.43 bitrate=   0.0kbits/s speed=0.877x    frame=  381 fps= 31 q=21.0 size=       0kB time=00:00:10.93 bitrate=   0.0kbits/s speed=0.882x    frame=  396 fps= 31 q=21.0 size=       0kB time=00:00:11.43 bitrate=   0.0kbits/s speed=0.885x    frame=  412 fps= 31 q=21.0 size=       0kB time=00:00:11.96 bitrate=   0.0kbits/s speed=0.89x    frame=  429 fps= 31 q=21.0 size=       0kB time=00:00:12.53 bitrate=   0.0kbits/s speed=0.898x    frame=  445 fps= 31 q=21.0 size=       0kB time=00:00:13.06 bitrate=   0.0kbits/s speed=0.903x    frame=  462 fps= 31 q=21.0 size=       0kB time=00:00:13.63 bitrate=   0.0kbits/s speed=0.91x    frame=  478 fps= 31 q=21.0 size=       0kB time=00:00:14.16 bitrate=   0.0kbits/s speed=0.915x    frame=  493 fps= 31 q=21.0 size=       0kB time=00:00:14.66 bitrate=   0.0kbits/s speed=0.917x    frame=  509 fps= 31 q=21.0 size=       0kB time=00:00:15.20 bitrate=   0.0kbits/s speed=0.921x    frame=  524 fps= 31 q=21.0 size=       0kB time=00:00:15.70 bitrate=   0.0kbits/s speed=0.923x    frame=  540 fps= 31 q=21.0 size=       0kB time=00:00:16.23 bitrate=   0.0kbits/s speed=0.926x    frame=  556 fps= 31 q=18.0 size=       0kB time=00:00:16.76 bitrate=   0.0kbits/s speed=0.929x    frame=  573 fps= 31 q=21.0 size=       0kB time=00:00:17.33 bitrate=   0.0kbits/s speed=0.933x    frame=  589 fps= 31 q=21.0 size=       0kB time=00:00:17.86 bitrate=   0.0kbits/s speed=0.935x    frame=  605 fps= 31 q=21.0 size=       0kB time=00:00:18.40 bitrate=   0.0kbits/s speed=0.939x    frame=  622 fps= 31 q=21.0 size=       0kB time=00:00:18.96 bitrate=   0.0kbits/s speed=0.942x    frame=  639 fps= 31 q=21.0 size=       0kB time=00:00:19.53 bitrate=   0.0kbits/s speed=0.945x    frame=  657 fps= 31 q=21.0 size=       0kB time=00:00:20.13 bitrate=   0.0kbits/s speed=0.951x    frame=  675 fps= 31 q=21.0 size=       0kB time=00:00:20.73 bitrate=   0.0kbits/s speed=0.956x    frame=  691 fps= 31 q=21.0 size=       0kB time=00:00:21.26 bitrate=   0.0kbits/s speed=0.959x    frame=  706 fps= 31 q=21.0 size=       0kB time=00:00:21.76 bitrate=   0.0kbits/s speed=0.96x    frame=  722 fps= 31 q=21.0 size=       0kB time=00:00:22.30 bitrate=   0.0kbits/s speed=0.961x    frame=  738 fps= 31 q=21.0 size=       0kB time=00:00:22.83 bitrate=   0.0kbits/s speed=0.963x    frame=  755 fps= 31 q=21.0 size=       0kB time=00:00:23.40 bitrate=   0.0kbits/s speed=0.966x    frame=  770 fps= 31 q=21.0 size=       0kB time=00:00:23.90 bitrate=   0.0kbits/s speed=0.965x    frame=  786 fps= 31 q=21.0 size=       0kB time=00:00:24.43 bitrate=   0.0kbits/s speed=0.966x    frame=  801 fps= 31 q=21.0 size=       0kB time=00:00:24.93 bitrate=   0.0kbits/s speed=0.966x    frame=  818 fps= 31 q=21.0 size=       0kB time=00:00:25.50 bitrate=   0.0kbits/s speed=0.969x    frame=  834 fps= 31 q=21.0 size=       0kB time=00:00:26.03 bitrate=   0.0kbits/s speed=0.97x    frame=  851 fps= 31 q=21.0 size=       0kB time=00:00:26.60 bitrate=   0.0kbits/s speed=0.972x    frame=  868 fps= 31 q=21.0 size=       0kB time=00:00:27.16 bitrate=   0.0kbits/s speed=0.974x    frame=  885 fps= 31 q=21.0 size=       0kB time=00:00:27.73 bitrate=   0.0kbits/s speed=0.975x    frame=  901 fps= 31 q=21.0 size=       0kB time=00:00:28.26 bitrate=   0.0kbits/s speed=0.976x    frame=  918 fps= 31 q=21.0 size=       0kB time=00:00:28.83 bitrate=   0.0kbits/s speed=0.977x    frame=  934 fps= 31 q=21.0 size=       0kB time=00:00:29.36 bitrate=   0.0kbits/s speed=0.979x    frame=  953 fps= 31 q=21.0 size=       0kB time=00:00:30.00 bitrate=   0.0kbits/s speed=0.983x    frame=  970 fps= 31 q=18.0 size=       0kB time=00:00:30.56 bitrate=   0.0kbits/s speed=0.985x    frame=  986 fps= 31 q=21.0 size=       0kB time=00:00:31.10 bitrate=   0.0kbits/s speed=0.986x    frame= 1002 fps= 31 q=21.0 size=       0kB time=00:00:31.63 bitrate=   0.0kbits/s speed=0.987x    frame= 1019 fps= 31 q=21.0 size=       0kB time=00:00:32.20 bitrate=   0.0kbits/s speed=0.988x    frame= 1036 fps= 31 q=21.0 size=       0kB time=00:00:32.76 bitrate=   0.0kbits/s speed=0.99x    frame= 1051 fps= 31 q=21.0 size=       0kB time=00:00:33.26 bitrate=   0.0kbits/s speed=0.99x    frame= 1067 fps= 31 q=21.0 size=       0kB time=00:00:33.80 bitrate=   0.0kbits/s speed=0.99x    frame= 1083 fps= 31 q=21.0 size=       0kB time=00:00:34.33 bitrate=   0.0kbits/s speed=0.99x    frame= 1098 fps= 31 q=21.0 size=       0kB time=00:00:34.83 bitrate=   0.0kbits/s speed=0.99x    frame= 1114 fps= 31 q=21.0 size=       0kB time=00:00:35.36 bitrate=   0.0kbits/s speed=0.991x    frame= 1131 fps= 31 q=21.0 size=       0kB time=00:00:35.93 bitrate=   0.0kbits/s speed=0.992x    frame= 1148 fps= 31 q=21.0 size=       0kB time=00:00:36.50 bitrate=   0.0kbits/s speed=0.994x    frame= 1165 fps= 31 q=21.0 size=       0kB time=00:00:37.06 bitrate=   0.0kbits/s speed=0.995x    frame= 1181 fps= 31 q=21.0 size=       0kB time=00:00:37.60 bitrate=   0.0kbits/s speed=0.995x    frame= 1196 fps= 31 q=21.0 size=       0kB time=00:00:38.10 bitrate=   0.0kbits/s speed=0.995x    frame= 1212 fps= 31 q=21.0 size=       0kB time=00:00:38.63 bitrate=   0.0kbits/s speed=0.995x    frame= 1227 fps= 31 q=21.0 size=       0kB time=00:00:39.13 bitrate=   0.0kbits/s speed=0.995x    frame= 1243 fps= 31 q=21.0 size=     256kB time=00:00:39.66 bitrate=  52.9kbits/s speed=0.995x    frame= 1255 fps= 31 q=21.0 size=     256kB time=00:00:40.06 bitrate=  52.4kbits/s speed=0.993x    frame= 1266 fps= 31 q=21.0 size=     256kB time=00:00:40.43 bitrate=  51.9kbits/s speed=0.989x    frame= 1280 fps= 31 q=21.0 size=     256kB time=00:00:40.90 bitrate=  51.3kbits/s speed=0.988x    frame= 1296 fps= 31 q=21.0 size=     256kB time=00:00:41.43 bitrate=  50.6kbits/s speed=0.989x    frame= 1311 fps= 31 q=21.0 size=     256kB time=00:00:41.93 bitrate=  50.0kbits/s speed=0.989x    frame= 1326 fps= 31 q=21.0 size=     256kB time=00:00:42.43 bitrate=  49.4kbits/s speed=0.989x    frame= 1341 fps= 31 q=21.0 size=     256kB time=00:00:42.93 bitrate=  48.9kbits/s speed=0.989x    frame= 1357 fps= 31 q=21.0 size=     256kB time=00:00:43.46 bitrate=  48.3kbits/s speed=0.989x    frame= 1373 fps= 31 q=21.0 size=     256kB time=00:00:44.00 bitrate=  47.7kbits/s speed=0.989x    frame= 1390 fps= 31 q=21.0 size=     256kB time=00:00:44.56 bitrate=  47.1kbits/s speed=0.991x    frame= 1407 fps= 31 q=21.0 size=     256kB time=00:00:45.13 bitrate=  46.5kbits/s speed=0.992x    frame= 1422 fps= 31 q=21.0 size=     256kB time=00:00:45.63 bitrate=  46.0kbits/s speed=0.992x    frame= 1436 fps= 31 q=21.0 size=     256kB time=00:00:46.10 bitrate=  45.5kbits/s speed=0.991x    frame= 1451 fps= 31 q=21.0 size=     256kB time=00:00:46.60 bitrate=  45.0kbits/s speed=0.991x    frame= 1466 fps= 31 q=21.0 size=     256kB time=00:00:47.10 bitrate=  44.5kbits/s speed=0.991x    frame= 1481 fps= 31 q=21.0 size=     256kB time=00:00:47.60 bitrate=  44.1kbits/s speed=0.991x    frame= 1497 fps= 31 q=21.0 size=     256kB time=00:00:48.13 bitrate=  43.6kbits/s speed=0.991x    frame= 1513 fps= 31 q=18.0 size=     256kB time=00:00:48.66 bitrate=  43.1kbits/s speed=0.991x    frame= 1529 fps= 31 q=21.0 size=     256kB time=00:00:49.20 bitrate=  42.6kbits/s speed=0.991x    frame= 1545 fps= 31 q=21.0 size=     256kB time=00:00:49.73 bitrate=  42.2kbits/s speed=0.992x    frame= 1561 fps= 31 q=21.0 size=     256kB time=00:00:50.26 bitrate=  41.7kbits/s speed=0.993x    frame= 1577 fps= 31 q=21.0 size=     256kB time=00:00:50.80 bitrate=  41.3kbits/s speed=0.993x    frame= 1592 fps= 31 q=21.0 size=     256kB time=00:00:51.30 bitrate=  40.9kbits/s speed=0.993x    frame= 1607 fps= 31 q=21.0 size=     256kB time=00:00:51.80 bitrate=  40.5kbits/s speed=0.993x    frame= 1623 fps= 31 q=21.0 size=     256kB time=00:00:52.33 bitrate=  40.1kbits/s speed=0.993x    frame= 1638 fps= 31 q=21.0 size=     256kB time=00:00:52.83 bitrate=  39.7kbits/s speed=0.992x    frame= 1654 fps= 31 q=21.0 size=     256kB time=00:00:53.36 bitrate=  39.3kbits/s speed=0.992x    frame= 1669 fps= 31 q=21.0 size=     256kB time=00:00:53.86 bitrate=  38.9kbits/s speed=0.992x    frame= 1684 fps= 31 q=21.0 size=     256kB time=00:00:54.36 bitrate=  38.6kbits/s speed=0.992x    frame= 1699 fps= 31 q=21.0 size=     256kB time=00:00:54.86 bitrate=  38.2kbits/s speed=0.992x    frame= 1714 fps= 31 q=21.0 size=     256kB time=00:00:55.36 bitrate=  37.9kbits/s speed=0.992x    frame= 1729 fps= 31 q=21.0 size=     256kB time=00:00:55.86 bitrate=  37.5kbits/s speed=0.992x    frame= 1744 fps= 31 q=21.0 size=     256kB time=00:00:56.36 bitrate=  37.2kbits/s speed=0.992x    frame= 1759 fps= 31 q=21.0 size=     256kB time=00:00:56.86 bitrate=  36.9kbits/s speed=0.992x    frame= 1773 fps= 31 q=21.0 size=     256kB time=00:00:57.33 bitrate=  36.6kbits/s speed=0.991x    frame= 1788 fps= 31 q=21.0 size=     256kB time=00:00:57.83 bitrate=  36.3kbits/s speed=0.991x    frame= 1802 fps= 31 q=21.0 size=     256kB time=00:00:58.30 bitrate=  36.0kbits/s speed=0.991x    frame= 1817 fps= 31 q=21.0 size=     256kB time=00:00:58.80 bitrate=  35.7kbits/s speed=0.991x    frame= 1832 fps= 31 q=21.0 size=     256kB time=00:00:59.30 bitrate=  35.4kbits/s speed=0.99x    frame= 1848 fps= 31 q=21.0 size=     256kB time=00:00:59.83 bitrate=  35.1kbits/s speed=0.991x    frame= 1863 fps= 31 q=21.0 size=     256kB time=00:01:00.33 bitrate=  34.8kbits/s speed=0.991x    frame= 1878 fps= 31 q=21.0 size=     256kB time=00:01:00.83 bitrate=  34.5kbits/s speed=0.991x    frame= 1893 fps= 31 q=21.0 size=     256kB time=00:01:01.33 bitrate=  34.2kbits/s speed=0.99x    frame= 1909 fps= 31 q=21.0 size=     256kB time=00:01:01.86 bitrate=  33.9kbits/s speed=0.991x    frame= 1924 fps= 31 q=21.0 size=     256kB time=00:01:02.36 bitrate=  33.6kbits/s speed=0.99x    frame= 1939 fps= 31 q=21.0 size=     256kB time=00:01:02.86 bitrate=  33.4kbits/s speed=0.99x    frame= 1954 fps= 31 q=21.0 size=     256kB time=00:01:03.36 bitrate=  33.1kbits/s speed=0.99x    frame= 1969 fps= 31 q=21.0 size=     256kB time=00:01:03.86 bitrate=  32.8kbits/s speed=0.99x    frame= 1984 fps= 31 q=21.0 size=     256kB time=00:01:04.36 bitrate=  32.6kbits/s speed=0.99x    frame= 2000 fps= 31 q=21.0 size=     256kB time=00:01:04.90 bitrate=  32.3kbits/s speed=0.99x    frame= 2016 fps= 31 q=21.0 size=     256kB time=00:01:05.43 bitrate=  32.1kbits/s speed=0.99x    frame= 2030 fps= 30 q=21.0 size=     256kB time=00:01:05.90 bitrate=  31.8kbits/s speed=0.99x    frame= 2045 fps= 30 q=21.0 size=     256kB time=00:01:06.40 bitrate=  31.6kbits/s speed=0.99x    frame= 2061 fps= 30 q=21.0 size=     256kB time=00:01:06.93 bitrate=  31.3kbits/s speed=0.99x    frame= 2075 fps= 30 q=21.0 size=     256kB time=00:01:07.40 bitrate=  31.1kbits/s speed=0.989x    frame= 2092 fps= 30 q=21.0 size=     256kB time=00:01:07.96 bitrate=  30.9kbits/s speed=0.99x    frame= 2107 fps= 30 q=21.0 size=     256kB time=00:01:08.46 bitrate=  30.6kbits/s speed=0.99x    frame= 2122 fps= 30 q=21.0 size=     256kB time=00:01:08.96 bitrate=  30.4kbits/s speed=0.99x    frame= 2138 fps= 30 q=21.0 size=     256kB time=00:01:09.50 bitrate=  30.2kbits/s speed=0.99x    frame= 2155 fps= 30 q=21.0 size=     256kB time=00:01:10.06 bitrate=  29.9kbits/s speed=0.991x    frame= 2170 fps= 30 q=18.0 size=     256kB time=00:01:10.56 bitrate=  29.7kbits/s speed=0.991x    frame= 2185 fps= 30 q=21.0 size=     256kB time=00:01:11.06 bitrate=  29.5kbits/s speed=0.991x    frame= 2200 fps= 30 q=21.0 size=     256kB time=00:01:11.56 bitrate=  29.3kbits/s speed=0.991x    frame= 2215 fps= 30 q=18.0 size=     256kB time=00:01:12.06 bitrate=  29.1kbits/s speed=0.99x    frame= 2230 fps= 30 q=21.0 size=     256kB time=00:01:12.56 bitrate=  28.9kbits/s speed=0.99x    frame= 2245 fps= 30 q=21.0 size=     256kB time=00:01:13.06 bitrate=  28.7kbits/s speed=0.99x    frame= 2260 fps= 30 q=21.0 size=     256kB time=00:01:13.56 bitrate=  28.5kbits/s speed=0.99x    frame= 2275 fps= 30 q=21.0 size=     256kB time=00:01:14.06 bitrate=  28.3kbits/s speed=0.99x    frame= 2290 fps= 30 q=21.0 size=     256kB time=00:01:14.56 bitrate=  28.1kbits/s speed=0.99x    frame= 2306 fps= 30 q=21.0 size=     256kB time=00:01:15.10 bitrate=  27.9kbits/s speed=0.99x    frame= 2322 fps= 30 q=21.0 size=     256kB time=00:01:15.63 bitrate=  27.7kbits/s speed=0.99x    frame= 2338 fps= 30 q=21.0 size=     256kB time=00:01:16.16 bitrate=  27.5kbits/s speed=0.99x    frame= 2353 fps= 30 q=21.0 size=     256kB time=00:01:16.66 bitrate=  27.4kbits/s speed=0.99x    frame= 2368 fps= 30 q=21.0 size=     256kB time=00:01:17.16 bitrate=  27.2kbits/s speed=0.99x    frame= 2382 fps= 30 q=21.0 size=     256kB time=00:01:17.63 bitrate=  27.0kbits/s speed=0.99x    frame= 2398 fps= 30 q=21.0 size=     256kB time=00:01:18.16 bitrate=  26.8kbits/s speed=0.99x    frame= 2414 fps= 30 q=21.0 size=     256kB time=00:01:18.70 bitrate=  26.7kbits/s speed=0.99x    frame= 2429 fps= 30 q=21.0 size=     256kB time=00:01:19.20 bitrate=  26.5kbits/s speed=0.99x    frame= 2447 fps= 30 q=21.0 size=     512kB time=00:01:19.80 bitrate=  52.6kbits/s speed=0.991x    frame= 2464 fps= 30 q=21.0 size=     512kB time=00:01:20.36 bitrate=  52.2kbits/s speed=0.992x    frame= 2480 fps= 30 q=21.0 size=     512kB time=00:01:20.90 bitrate=  51.9kbits/s speed=0.992x    frame= 2495 fps= 30 q=21.0 size=     512kB time=00:01:21.40 bitrate=  51.5kbits/s speed=0.992x    frame= 2509 fps= 30 q=21.0 size=     512kB time=00:01:21.86 bitrate=  51.2kbits/s speed=0.991x    frame= 2524 fps= 30 q=21.0 size=     512kB time=00:01:22.36 bitrate=  50.9kbits/s speed=0.991x    frame= 2538 fps= 30 q=21.0 size=     512kB time=00:01:22.83 bitrate=  50.6kbits/s speed=0.991x    frame= 2552 fps= 30 q=21.0 size=     512kB time=00:01:23.30 bitrate=  50.4kbits/s speed=0.99x    frame= 2567 fps= 30 q=21.0 size=     512kB time=00:01:23.80 bitrate=  50.1kbits/s speed=0.99x    frame= 2581 fps= 30 q=21.0 size=     512kB time=00:01:24.26 bitrate=  49.8kbits/s speed=0.989x    frame= 2595 fps= 30 q=21.0 size=     512kB time=00:01:24.73 bitrate=  49.5kbits/s speed=0.989x    frame= 2609 fps= 30 q=21.0 size=     512kB time=00:01:25.20 bitrate=  49.2kbits/s speed=0.988x    frame= 2623 fps= 30 q=21.0 size=     512kB time=00:01:25.66 bitrate=  49.0kbits/s speed=0.988x    frame= 2638 fps= 30 q=21.0 size=     512kB time=00:01:26.16 bitrate=  48.7kbits/s speed=0.988x    frame= 2651 fps= 30 q=21.0 size=     512kB time=00:01:26.60 bitrate=  48.4kbits/s speed=0.987x    frame= 2665 fps= 30 q=21.0 size=     512kB time=00:01:27.06 bitrate=  48.2kbits/s speed=0.986x    frame= 2680 fps= 30 q=21.0 size=     512kB time=00:01:27.56 bitrate=  47.9kbits/s speed=0.986x    frame= 2694 fps= 30 q=21.0 size=     512kB time=00:01:28.03 bitrate=  47.6kbits/s speed=0.986x    frame= 2709 fps= 30 q=21.0 size=     512kB time=00:01:28.53 bitrate=  47.4kbits/s speed=0.986x    frame= 2724 fps= 30 q=21.0 size=     512kB time=00:01:29.03 bitrate=  47.1kbits/s speed=0.985x    frame= 2738 fps= 30 q=21.0 size=     512kB time=00:01:29.50 bitrate=  46.9kbits/s speed=0.985x    frame= 2755 fps= 30 q=21.0 size=     512kB time=00:01:30.06 bitrate=  46.6kbits/s speed=0.985x    frame= 2771 fps= 30 q=21.0 size=     512kB time=00:01:30.60 bitrate=  46.3kbits/s speed=0.986x    frame= 2787 fps= 30 q=21.0 size=     512kB time=00:01:31.13 bitrate=  46.0kbits/s speed=0.986x    frame= 2804 fps= 30 q=21.0 size=     512kB time=00:01:31.70 bitrate=  45.7kbits/s speed=0.987x    frame= 2821 fps= 30 q=21.0 size=     512kB time=00:01:32.26 bitrate=  45.5kbits/s speed=0.988x    frame= 2836 fps= 30 q=21.0 size=     512kB time=00:01:32.76 bitrate=  45.2kbits/s speed=0.987x    frame= 2851 fps= 30 q=21.0 size=     512kB time=00:01:33.26 bitrate=  45.0kbits/s speed=0.987x    frame= 2866 fps= 30 q=21.0 size=     512kB time=00:01:33.76 bitrate=  44.7kbits/s speed=0.987x    frame= 2881 fps= 30 q=21.0 size=     512kB time=00:01:34.26 bitrate=  44.5kbits/s speed=0.987x    frame= 2896 fps= 30 q=21.0 size=     512kB time=00:01:34.76 bitrate=  44.3kbits/s speed=0.987x    frame= 2911 fps= 30 q=21.0 size=     512kB time=00:01:35.26 bitrate=  44.0kbits/s speed=0.987x    frame= 2926 fps= 30 q=21.0 size=     512kB time=00:01:35.76 bitrate=  43.8kbits/s speed=0.987x    frame= 2937 fps= 30 q=21.0 size=     512kB time=00:01:36.13 bitrate=  43.6kbits/s speed=0.985x    frame= 2951 fps= 30 q=21.0 size=     512kB time=00:01:36.60 bitrate=  43.4kbits/s speed=0.985x    frame= 2966 fps= 30 q=21.0 size=     512kB time=00:01:37.10 bitrate=  43.2kbits/s speed=0.985x    frame= 2981 fps= 30 q=21.0 size=     512kB time=00:01:37.60 bitrate=  43.0kbits/s speed=0.985x    frame= 2999 fps= 30 q=18.0 size=     512kB time=00:01:38.20 bitrate=  42.7kbits/s speed=0.986x    frame= 3017 fps= 30 q=21.0 size=     512kB time=00:01:38.80 bitrate=  42.5kbits/s speed=0.987x    frame= 3033 fps= 30 q=21.0 size=     512kB time=00:01:39.33 bitrate=  42.2kbits/s speed=0.987x    frame= 3049 fps= 30 q=21.0 size=     512kB time=00:01:39.86 bitrate=  42.0kbits/s speed=0.987x    frame= 3065 fps= 30 q=21.0 size=     512kB time=00:01:40.40 bitrate=  41.8kbits/s speed=0.987x    frame= 3080 fps= 30 q=21.0 size=     512kB time=00:01:40.90 bitrate=  41.6kbits/s speed=0.987x    frame= 3095 fps= 30 q=21.0 size=     512kB time=00:01:41.40 bitrate=  41.4kbits/s speed=0.987x    frame= 3110 fps= 30 q=21.0 size=     512kB time=00:01:41.90 bitrate=  41.2kbits/s speed=0.987x    frame= 3125 fps= 30 q=21.0 size=     512kB time=00:01:42.40 bitrate=  41.0kbits/s speed=0.987x    frame= 3140 fps= 30 q=21.0 size=     512kB time=00:01:42.90 bitrate=  40.8kbits/s speed=0.987x    frame= 3155 fps= 30 q=21.0 size=     512kB time=00:01:43.40 bitrate=  40.6kbits/s speed=0.987x    frame= 3170 fps= 30 q=21.0 size=     512kB time=00:01:43.90 bitrate=  40.4kbits/s speed=0.987x    frame= 3185 fps= 30 q=21.0 size=     512kB time=00:01:44.40 bitrate=  40.2kbits/s speed=0.987x    frame= 3200 fps= 30 q=21.0 size=     512kB time=00:01:44.90 bitrate=  40.0kbits/s speed=0.987x    frame= 3215 fps= 30 q=21.0 size=     512kB time=00:01:45.40 bitrate=  39.8kbits/s speed=0.987x    frame= 3230 fps= 30 q=21.0 size=     512kB time=00:01:45.90 bitrate=  39.6kbits/s speed=0.987x    frame= 3245 fps= 30 q=21.0 size=     512kB time=00:01:46.40 bitrate=  39.4kbits/s speed=0.986x    frame= 3260 fps= 30 q=21.0 size=     512kB time=00:01:46.90 bitrate=  39.2kbits/s speed=0.986x    frame= 3274 fps= 30 q=21.0 size=     512kB time=00:01:47.36 bitrate=  39.1kbits/s speed=0.986x    frame= 3289 fps= 30 q=21.0 size=     512kB time=00:01:47.86 bitrate=  38.9kbits/s speed=0.986x    frame= 3304 fps= 30 q=21.0 size=     512kB time=00:01:48.36 bitrate=  38.7kbits/s speed=0.986x    frame= 3319 fps= 30 q=21.0 size=     512kB time=00:01:48.86 bitrate=  38.5kbits/s speed=0.986x    frame= 3335 fps= 30 q=21.0 size=     512kB time=00:01:49.40 bitrate=  38.3kbits/s speed=0.986x    frame= 3353 fps= 30 q=21.0 size=     512kB time=00:01:50.00 bitrate=  38.1kbits/s speed=0.987x    frame= 3370 fps= 30 q=18.0 size=     512kB time=00:01:50.56 bitrate=  37.9kbits/s speed=0.987x    frame= 3388 fps= 30 q=18.0 size=     512kB time=00:01:51.16 bitrate=  37.7kbits/s speed=0.988x    frame= 3404 fps= 30 q=21.0 size=     512kB time=00:01:51.70 bitrate=  37.6kbits/s speed=0.988x    frame= 3421 fps= 30 q=21.0 size=     512kB time=00:01:52.26 bitrate=  37.4kbits/s speed=0.989x    frame= 3437 fps= 30 q=21.0 size=     512kB time=00:01:52.80 bitrate=  37.2kbits/s speed=0.989x    frame= 3454 fps= 30 q=21.0 size=     512kB time=00:01:53.36 bitrate=  37.0kbits/s speed=0.989x    frame= 3471 fps= 30 q=21.0 size=     512kB time=00:01:53.93 bitrate=  36.8kbits/s speed=0.99x    frame= 3487 fps= 30 q=21.0 size=     512kB time=00:01:54.46 bitrate=  36.6kbits/s speed=0.99x    frame= 3502 fps= 30 q=21.0 size=     512kB time=00:01:54.96 bitrate=  36.5kbits/s speed=0.99x    frame= 3518 fps= 30 q=21.0 size=     512kB time=00:01:55.50 bitrate=  36.3kbits/s speed=0.99x    frame= 3535 fps= 30 q=21.0 size=     512kB time=00:01:56.06 bitrate=  36.1kbits/s speed=0.991x    frame= 3552 fps= 30 q=21.0 size=     512kB time=00:01:56.63 bitrate=  36.0kbits/s speed=0.991x    frame= 3569 fps= 30 q=21.0 size=     512kB time=00:01:57.20 bitrate=  35.8kbits/s speed=0.992x    frame= 3585 fps= 30 q=21.0 size=     512kB time=00:01:57.73 bitrate=  35.6kbits/s speed=0.992x    frame= 3601 fps= 30 q=21.0 size=     512kB time=00:01:58.26 bitrate=  35.5kbits/s speed=0.992x    frame= 3617 fps= 30 q=21.0 size=     512kB time=00:01:58.80 bitrate=  35.3kbits/s speed=0.992x    frame= 3634 fps= 30 q=21.0 size=     768kB time=00:01:59.36 bitrate=  52.7kbits/s speed=0.993x    frame= 3652 fps= 30 q=21.0 size=     768kB time=00:01:59.96 bitrate=  52.4kbits/s speed=0.994x    frame= 3670 fps= 30 q=18.0 size=     768kB time=00:02:00.56 bitrate=  52.2kbits/s speed=0.994x    frame= 3687 fps= 30 q=21.0 size=     768kB time=00:02:01.13 bitrate=  51.9kbits/s speed=0.995x    frame= 3703 fps= 30 q=21.0 size=     768kB time=00:02:01.66 bitrate=  51.7kbits/s speed=0.995x    frame= 3720 fps= 30 q=21.0 size=     768kB time=00:02:02.23 bitrate=  51.5kbits/s speed=0.995x    frame= 3737 fps= 30 q=21.0 size=     768kB time=00:02:02.80 bitrate=  51.2kbits/s speed=0.996x    frame= 3754 fps= 30 q=21.0 size=     768kB time=00:02:03.36 bitrate=  51.0kbits/s speed=0.996x    frame= 3770 fps= 30 q=21.0 size=     768kB time=00:02:03.90 bitrate=  50.8kbits/s speed=0.997x    frame= 3787 fps= 30 q=21.0 size=     768kB time=00:02:04.46 bitrate=  50.6kbits/s speed=0.997x    frame= 3804 fps= 30 q=21.0 size=     768kB time=00:02:05.03 bitrate=  50.3kbits/s speed=0.998x    frame= 3820 fps= 30 q=21.0 size=     768kB time=00:02:05.56 bitrate=  50.1kbits/s speed=0.998x    frame= 3836 fps= 30 q=21.0 size=     768kB time=00:02:06.10 bitrate=  49.9kbits/s speed=0.998x    frame= 3853 fps= 30 q=21.0 size=     768kB time=00:02:06.66 bitrate=  49.7kbits/s speed=0.998x    frame= 3870 fps= 30 q=21.0 size=     768kB time=00:02:07.23 bitrate=  49.5kbits/s speed=0.999x    frame= 3885 fps= 30 q=21.0 size=     768kB time=00:02:07.73 bitrate=  49.3kbits/s speed=0.998x    frame= 3901 fps= 30 q=21.0 size=     768kB time=00:02:08.26 bitrate=  49.1kbits/s speed=0.999x    frame= 3917 fps= 30 q=21.0 size=     768kB time=00:02:08.80 bitrate=  48.8kbits/s speed=0.999x    frame= 3934 fps= 30 q=21.0 size=     768kB time=00:02:09.36 bitrate=  48.6kbits/s speed=0.999x    frame= 3952 fps= 30 q=21.0 size=     768kB time=00:02:09.96 bitrate=  48.4kbits/s speed=   1x    frame= 3970 fps= 30 q=18.0 size=     768kB time=00:02:10.56 bitrate=  48.2kbits/s speed=   1x    frame= 3987 fps= 30 q=21.0 size=     768kB time=00:02:11.13 bitrate=  48.0kbits/s speed=   1x    frame= 4004 fps= 30 q=21.0 size=     768kB time=00:02:11.70 bitrate=  47.8kbits/s speed=   1x    frame= 4020 fps= 30 q=21.0 size=     768kB time=00:02:12.23 bitrate=  47.6kbits/s speed=   1x    frame= 4035 fps= 30 q=21.0 size=     768kB time=00:02:12.73 bitrate=  47.4kbits/s speed=   1x    frame= 4050 fps= 30 q=21.0 size=     768kB time=00:02:13.23 bitrate=  47.2kbits/s speed=   1x    frame= 4065 fps= 30 q=21.0 size=     768kB time=00:02:13.73 bitrate=  47.0kbits/s speed=   1x    frame= 4080 fps= 30 q=21.0 size=     768kB time=00:02:14.23 bitrate=  46.9kbits/s speed=   1x    frame= 4096 fps= 30 q=21.0 size=     768kB time=00:02:14.76 bitrate=  46.7kbits/s speed=   1x    frame= 4112 fps= 30 q=21.0 size=     768kB time=00:02:15.30 bitrate=  46.5kbits/s speed=   1x    frame= 4128 fps= 30 q=21.0 size=     768kB time=00:02:15.83 bitrate=  46.3kbits/s speed=   1x    frame= 4144 fps= 30 q=21.0 size=     768kB time=00:02:16.36 bitrate=  46.1kbits/s speed=   1x    frame= 4160 fps= 30 q=21.0 size=     768kB time=00:02:16.90 bitrate=  46.0kbits/s speed=   1x    frame= 4176 fps= 30 q=21.0 size=     768kB time=00:02:17.43 bitrate=  45.8kbits/s speed=   1x    frame= 4191 fps= 30 q=21.0 size=     768kB time=00:02:17.93 bitrate=  45.6kbits/s speed=   1x    frame= 4206 fps= 30 q=21.0 size=     768kB time=00:02:18.43 bitrate=  45.5kbits/s speed=   1x    frame= 4221 fps= 30 q=21.0 size=     768kB time=00:02:18.93 bitrate=  45.3kbits/s speed=   1x    frame= 4237 fps= 30 q=21.0 size=     768kB time=00:02:19.46 bitrate=  45.1kbits/s speed=   1x    frame= 4253 fps= 30 q=21.0 size=     768kB time=00:02:20.00 bitrate=  44.9kbits/s speed=   1x    frame= 4269 fps= 30 q=21.0 size=     768kB time=00:02:20.53 bitrate=  44.8kbits/s speed=   1x    frame= 4284 fps= 30 q=21.0 size=     768kB time=00:02:21.03 bitrate=  44.6kbits/s speed=   1x    frame= 4299 fps= 30 q=21.0 size=     768kB time=00:02:21.53 bitrate=  44.5kbits/s speed=   1x    frame= 4314 fps= 30 q=21.0 size=     768kB time=00:02:22.03 bitrate=  44.3kbits/s speed=   1x    frame= 4329 fps= 30 q=21.0 size=     768kB time=00:02:22.53 bitrate=  44.1kbits/s speed=   1x    frame= 4344 fps= 30 q=21.0 size=     768kB time=00:02:23.03 bitrate=  44.0kbits/s speed=   1x    frame= 4359 fps= 30 q=21.0 size=     768kB time=00:02:23.53 bitrate=  43.8kbits/s speed=   1x    frame= 4374 fps= 30 q=21.0 size=     768kB time=00:02:24.03 bitrate=  43.7kbits/s speed=   1x    frame= 4389 fps= 30 q=21.0 size=     768kB time=00:02:24.53 bitrate=  43.5kbits/s speed=   1x    frame= 4403 fps= 30 q=21.0 size=     768kB time=00:02:25.00 bitrate=  43.4kbits/s speed=   1x    frame= 4418 fps= 30 q=21.0 size=     768kB time=00:02:25.50 bitrate=  43.2kbits/s speed=   1x    frame= 4433 fps= 30 q=21.0 size=     768kB time=00:02:26.00 bitrate=  43.1kbits/s speed=   1x    frame= 4448 fps= 30 q=21.0 size=     768kB time=00:02:26.50 bitrate=  42.9kbits/s speed=   1x    frame= 4463 fps= 30 q=21.0 size=     768kB time=00:02:27.00 bitrate=  42.8kbits/s speed=   1x    frame= 4478 fps= 30 q=21.0 size=     768kB time=00:02:27.50 bitrate=  42.7kbits/s speed=   1x    frame= 4493 fps= 30 q=21.0 size=     768kB time=00:02:28.00 bitrate=  42.5kbits/s speed=   1x    frame= 4508 fps= 30 q=21.0 size=     768kB time=00:02:28.50 bitrate=  42.4kbits/s speed=0.999x    frame= 4523 fps= 30 q=21.0 size=     768kB time=00:02:29.00 bitrate=  42.2kbits/s speed=0.999x    frame= 4538 fps= 30 q=21.0 size=     768kB time=00:02:29.50 bitrate=  42.1kbits/s speed=0.999x    frame= 4554 fps= 30 q=21.0 size=     768kB time=00:02:30.03 bitrate=  41.9kbits/s speed=0.999x    frame= 4570 fps= 30 q=18.0 size=     768kB time=00:02:30.56 bitrate=  41.8kbits/s speed=   1x    frame= 4586 fps= 30 q=21.0 size=     768kB time=00:02:31.10 bitrate=  41.6kbits/s speed=   1x    frame= 4601 fps= 30 q=21.0 size=     768kB time=00:02:31.60 bitrate=  41.5kbits/s speed=0.999x    frame= 4616 fps= 30 q=21.0 size=     768kB time=00:02:32.10 bitrate=  41.4kbits/s speed=0.999x    frame= 4631 fps= 30 q=21.0 size=     768kB time=00:02:32.60 bitrate=  41.2kbits/s speed=0.999x    frame= 4646 fps= 30 q=21.0 size=     768kB time=00:02:33.10 bitrate=  41.1kbits/s speed=0.999x    frame= 4661 fps= 30 q=21.0 size=     768kB time=00:02:33.60 bitrate=  41.0kbits/s speed=0.999x    frame= 4676 fps= 30 q=21.0 size=     768kB time=00:02:34.10 bitrate=  40.8kbits/s speed=0.999x    frame= 4691 fps= 30 q=21.0 size=     768kB time=00:02:34.60 bitrate=  40.7kbits/s speed=0.999x    frame= 4706 fps= 30 q=21.0 size=     768kB time=00:02:35.10 bitrate=  40.6kbits/s speed=0.999x    frame= 4721 fps= 30 q=21.0 size=     768kB time=00:02:35.60 bitrate=  40.4kbits/s speed=0.999x    frame= 4736 fps= 30 q=21.0 size=     768kB time=00:02:36.10 bitrate=  40.3kbits/s speed=0.999x    frame= 4752 fps= 30 q=21.0 size=     768kB time=00:02:36.63 bitrate=  40.2kbits/s speed=0.999x    frame= 4767 fps= 30 q=21.0 size=     768kB time=00:02:37.13 bitrate=  40.0kbits/s speed=0.999x    frame= 4783 fps= 30 q=21.0 size=     768kB time=00:02:37.66 bitrate=  39.9kbits/s speed=0.999x    frame= 4798 fps= 30 q=21.0 size=     768kB time=00:02:38.16 bitrate=  39.8kbits/s speed=0.999x    frame= 4813 fps= 30 q=18.0 size=     768kB time=00:02:38.66 bitrate=  39.7kbits/s speed=0.999x    frame= 4828 fps= 30 q=21.0 size=    1024kB time=00:02:39.16 bitrate=  52.7kbits/s speed=0.999x    frame= 4844 fps= 30 q=21.0 size=    1024kB time=00:02:39.70 bitrate=  52.5kbits/s speed=0.999x    frame= 4858 fps= 30 q=21.0 size=    1024kB time=00:02:40.16 bitrate=  52.4kbits/s speed=0.998x    frame= 4868 fps= 30 q=21.0 size=    1024kB time=00:02:40.50 bitrate=  52.3kbits/s speed=0.997x    frame= 4868 fps= 30 q=-1.0 Lsize=    1067kB time=00:02:42.16 bitrate=  53.9kbits/s speed=   1x    
video:1042kB audio:0kB subtitle:0kB other streams:0kB global headers:0kB muxing overhead: 2.415823%
[libx264 @ 0x16c2f20] frame I:115   Avg QP: 1.18  size:   244
[libx264 @ 0x16c2f20] frame P:4358  Avg QP:24.86  size:   224
[libx264 @ 0x16c2f20] frame B:395   Avg QP:17.35  size:   155
[libx264 @ 0x16c2f20] consecutive B-frames: 86.8%  6.2%  3.0%  4.0%
[libx264 @ 0x16c2f20] mb I  I16..4: 99.0%  0.8%  0.1%
[libx264 @ 0x16c2f20] mb P  I16..4:  5.1% 11.7%  0.1%  P16..4:  1.0%  0.0%  0.0%  0.0%  0.0%    skip:82.1%
[libx264 @ 0x16c2f20] mb B  I16..4:  0.6%  0.0%  0.0%  B16..8:  5.3%  0.1%  0.0%  direct: 1.0%  skip:92.9%  L0:48.5% L1:51.4% BI: 0.1%
[libx264 @ 0x16c2f20] 8x8 transform intra:59.6% inter:25.8%
[libx264 @ 0x16c2f20] coded y,uvDC,uvAC intra: 0.1% 2.1% 0.4% inter: 0.0% 0.2% 0.2%
[libx264 @ 0x16c2f20] i16 v,h,dc,p: 98%  1%  1%  0%
[libx264 @ 0x16c2f20] i8 v,h,dc,ddl,ddr,vr,hd,vl,hu:  8%  1% 91%  0%  0%  0%  0%  0%  0%
[libx264 @ 0x16c2f20] i4 v,h,dc,ddl,ddr,vr,hd,vl,hu: 47% 26% 27%  0%  0%  0%  0%  0%  1%
[libx264 @ 0x16c2f20] i8c dc,h,v,p: 66%  0% 34%  0%
[libx264 @ 0x16c2f20] Weighted P-Frames: Y:0.0% UV:0.0%
[libx264 @ 0x16c2f20] ref P L0: 30.0%  0.0% 54.6% 15.4%
[libx264 @ 0x16c2f20] ref B L0: 99.7%  0.3%
[libx264 @ 0x16c2f20] kb/s:52.55
Exiting normally, received signal 15.
